<svg width="100" height="100" xmlns="http://www.w3.org/2000/svg">

 <g>
  <title>background</title>
  <rect fill="none" id="canvas_background" height="102" width="102" y="-1" x="-1"/>
 </g>
 <g>
  <title>Layer 1</title>
  <g id="svg_1">
   <path id="svg_2" d="m28.1,44.4c4.4,-1.1 7.2,-5.6 6.1,-10c-1.1,-4.4 -5.5,-7.2 -10,-6.1c-2.2,0.5 -4,1.8 -5.1,3.7c-1.2,1.9 -1.5,4.1 -1,6.3c0.9,3.8 4.3,6.4 8.1,6.4c0.7,0 1.3,-0.1 1.9,-0.3zm-3.3,-5.8c-0.6,-0.4 -1,-0.9 -1.2,-1.6c-0.2,-0.7 -0.1,-1.4 0.3,-2c0.4,-0.6 0.9,-1 1.6,-1.2c0.2,0 0.4,-0.1 0.6,-0.1c1.2,0 2.3,0.8 2.6,2c0.3,1.4 -0.5,2.8 -1.9,3.2c-0.7,0.2 -1.4,0.1 -2,-0.3z"/>
   <path id="svg_3" d="m59.1,80l0.6,-10.6l12.5,4.8l9.8,-11.7l-4.3,-3.6l-7.2,8.6l-10.3,-4l-0.1,0.2l0.7,-12.3l11.9,-6.8l-2.7,-4.9l-11.4,6.5l-11.1,-11.4l2.8,-14.7l-11.3,-12.8l-4.2,3.8l9.5,10.6l-2.8,14.9l4.6,4.7l-2.8,6.5l-9.6,-1.3c-1.5,-0.6 -3.3,-0.8 -5,-0.4c-2.2,0.5 -4,1.8 -5.1,3.7c-1.2,1.9 -1.5,4.1 -1,6.3l2.9,12.9c0.9,3.8 4.3,6.4 8.1,6.4c0.6,0 1.3,-0.1 1.9,-0.2l0,0c2.2,-0.5 3.9,-1.9 5,-3.6l7.6,1.5l5.2,8.4l-0.4,8.5l5.7,0.3l0.6,-10l0.2,-0.1l-0.3,-0.2zm-24.9,-10.3c-1.4,0.3 -2.8,-0.5 -3.2,-1.9l-3.1,-12.9c-0.3,-1.4 0.5,-2.8 1.9,-3.2c0.2,0 0.4,-0.1 0.6,-0.1c1.2,0 2.3,0.8 2.6,2l3.1,12.9c0.4,1.4 -0.5,2.8 -1.9,3.2zm17.4,-1.6l-9.9,-2c0,-0.3 0,-0.6 -0.1,-0.9l-2.9,-12.2l8,1.1l3.5,-8.4l4.9,5l-1.1,21l-2.4,-3.6z"/>
   <polygon id="svg_4" points="77.8,23.4 75,18.4 67.1,22.7 63,18.8 59.1,22.9 66.2,29.7  "/>
   <rect id="svg_5" height="12.9" width="5.7" transform="matrix(0.5003 -0.8658 0.8658 0.5003 -38.1634 107.7884)" y="80.5" x="71.5"/>
  </g>
 </g>
</svg>