<svg width="100" height="100" xmlns="http://www.w3.org/2000/svg">

 <g>
  <title>background</title>
  <rect fill="none" id="canvas_background" height="102" width="102" y="-1" x="-1"/>
 </g>
 <g>
  <title>Layer 1</title>
  <path id="svg_1" d="m22.925,28.196l0,-12.736c0,-1.075 0.872,-1.947 1.947,-1.947s1.947,0.872 1.947,1.947l0,12.736c0,1.075 -0.872,1.947 -1.947,1.947s-1.947,-0.872 -1.947,-1.947zm1.947,5.491c-4.63,0 -8.384,3.754 -8.384,8.384c0,3.965 2.753,7.285 6.452,8.158c-0.009,0.075 -0.014,0.15 -0.014,0.227l0,33.331c0,1.075 0.872,1.947 1.947,1.947s1.947,-0.872 1.947,-1.947l0,-33.33c0,-0.077 -0.006,-0.153 -0.014,-0.227c3.698,-0.873 6.452,-4.193 6.452,-8.158c-0.002,-4.631 -3.756,-8.385 -8.386,-8.385zm25.208,13.72c1.075,0 1.947,-0.872 1.947,-1.947l0,-30c0,-1.075 -0.872,-1.947 -1.947,-1.947s-1.947,0.872 -1.947,1.947l0,30c0,1.075 0.872,1.947 1.947,1.947zm0,3.545c-4.63,0 -8.384,3.754 -8.384,8.384c0,3.972 2.763,7.296 6.47,8.162c-0.021,0.113 -0.033,0.229 -0.033,0.349l0,16.693c0,1.075 0.872,1.947 1.947,1.947s1.947,-0.872 1.947,-1.947l0,-16.693c0,-0.119 -0.012,-0.235 -0.033,-0.349c3.708,-0.866 6.47,-4.19 6.47,-8.162c0,-4.631 -3.754,-8.384 -8.384,-8.384zm25.048,-20.81c1.075,0 1.947,-0.872 1.947,-1.947l0,-12.735c0,-1.075 -0.872,-1.947 -1.947,-1.947c-1.075,0 -1.947,0.872 -1.947,1.947l0,12.736c0.001,1.075 0.872,1.946 1.947,1.946zm8.385,11.93c0,-4.63 -3.754,-8.384 -8.384,-8.384c-4.63,0 -8.384,3.754 -8.384,8.384c0,3.965 2.753,7.285 6.452,8.158c-0.009,0.075 -0.014,0.15 -0.014,0.227l0,33.331c0,1.075 0.872,1.947 1.947,1.947c1.075,0 1.947,-0.872 1.947,-1.947l0,-33.331c0,-0.077 -0.006,-0.153 -0.014,-0.227c3.696,-0.873 6.45,-4.193 6.45,-8.158z"/>
 </g>
</svg>