<svg width="100" height="100" xmlns="http://www.w3.org/2000/svg">
 <!-- Created with Method Draw - http://github.com/duopixel/Method-Draw/ -->

 <g>
  <title>background</title>
  <rect fill="#fff" id="canvas_background" height="102" width="102" y="-1" x="-1"/>
  <g display="none" overflow="visible" y="0" x="0" height="100%" width="100%" id="canvasGrid">
   <rect fill="url(#gridpattern)" stroke-width="0" y="0" x="0" height="100%" width="100%"/>
  </g>
 </g>
 <g>
  <title>Layer 1</title>
  <path id="svg_4" d="m54.522,30.30296c0,0 -0.96872,-10.49514 10.01078,-10.49514s9.84804,10.49514 9.84804,10.49514s0.17243,8.87931 -9.9236,8.87931s-54.65729,0 -54.65729,0" stroke-miterlimit="10" stroke-linejoin="round" stroke-linecap="round" stroke-width="2" stroke="#000000" fill="none"/>
  <path id="svg_5" d="m82.93658,35.79174c0,0 7.26542,-0.16081 7.26542,6.13589s-5.97315,5.48878 -5.97315,5.48878l-8.5577,0.03294" stroke-miterlimit="10" stroke-linejoin="round" stroke-linecap="round" stroke-width="2" stroke="#000000" fill="none"/>
  <path id="svg_6" d="m9.798,48.70869l49.72842,0c0,0 15.98393,-0.64517 16.14474,15.33876s-14.8544,16.14474 -14.8544,16.14474" stroke-miterlimit="10" stroke-linejoin="round" stroke-linecap="round" stroke-width="2" stroke="#000000" fill="none"/>
  <path id="svg_7" d="m49.51564,70.18141c0,0 8.23415,-0.32355 8.23415,-6.62025s-8.23415,-6.2967 -8.23415,-6.2967l-39.71764,0" stroke-miterlimit="10" stroke-linejoin="round" stroke-linecap="round" stroke-width="2" stroke="#000000" fill="none"/>
 </g>
</svg>